<svg width="33" height="33" viewBox="0 0 33 33" fill="none" xmlns="http://www.w3.org/2000/svg">
<g id="Group">
<g id="Group_2">
<g id="Group_3">
<path id="Vector" d="M4.6974 6.4531C4.76213 2.87813 7.6803 0 11.2708 0C13.3678 0 15.2354 0.981781 16.4392 2.51076V9.02167H4.69629L4.6974 6.4531Z" fill="#FFBA75"/>
</g>
</g>
<path id="Vector_2" d="M11.2707 0C10.812 0 10.3644 0.0472274 9.93213 0.136652C11.4714 0.469596 12.7841 1.3805 13.8263 2.51076C16.0135 4.88278 16.0135 9.02167 16.0135 9.02167H16.4392V2.51076C15.2354 0.981781 13.3677 0 11.2707 0Z" fill="#FCA651"/>
<g id="Group_4">
<g id="Group_5">
<g id="Group_6">
<g id="Group_7">
<path id="Vector_3" d="M15.0487 7.05373C15.0381 6.88977 15.0327 6.7298 15.0327 6.57447C15.0327 2.94351 17.9762 0 21.6072 0C25.2381 0 28.1817 2.94351 28.1817 6.57447V9.76555H15.0327L15.0487 7.05373Z" fill="#90EB7C"/>
</g>
</g>
<path id="Vector_4" d="M21.6072 0C21.1599 0 20.723 0.0448758 20.3008 0.12999C23.3058 0.735911 25.5688 3.39077 25.5688 6.5744V9.76555H28.1817V6.57447C28.1817 2.94351 25.2382 0 21.6072 0Z" fill="#8AE076"/>
<g id="Group_8">
<g id="Group_9">
<path id="Vector_5" d="M16.2326 32.9547C15.962 32.9547 15.7427 32.7354 15.7427 32.4648V24.2915C15.7427 24.0209 15.962 23.8016 16.2326 23.8016C16.5032 23.8016 16.7225 24.0209 16.7225 24.2915V32.4648C16.7225 32.7354 16.5032 32.9547 16.2326 32.9547Z" fill="#F5F5F5"/>
</g>
<g id="Group_10">
<path id="Vector_6" d="M15.6769 23.6099C15.3787 24.124 15.0378 24.6288 14.7815 25.1649C14.5272 25.6969 15.1723 26.2137 15.6547 25.8743L15.896 25.7045C16.0978 25.5625 16.367 25.5625 16.5688 25.7045L16.8101 25.8743C17.2924 26.2137 17.9376 25.6969 17.6833 25.1649C17.427 24.6288 17.0861 24.124 16.7879 23.6099C16.541 23.1823 15.9238 23.1823 15.6769 23.6099Z" fill="#FCE100"/>
</g>
</g>
<g id="Group_11">
<g id="Group_12">
<path id="Vector_7" d="M10.352 32.9548C10.1216 32.9548 9.91628 32.7916 9.87133 32.557L8.20708 23.8709C8.15619 23.6051 8.33034 23.3484 8.59606 23.2975C8.86205 23.2471 9.1185 23.4208 9.16939 23.6865L10.8336 32.3726C10.8845 32.6384 10.7104 32.8951 10.4447 32.946C10.4135 32.9519 10.3825 32.9548 10.352 32.9548Z" fill="#F5F5F5"/>
</g>
<g id="Group_13">
<path id="Vector_8" d="M11.5472 19.7167C10.764 21.0952 9.71176 22.1222 8.41814 22.3701C4.85205 23.0533 0.801923 17.5569 0.118661 13.9908C-0.564601 10.4247 1.7724 6.9799 5.33849 6.29664C7.84298 5.81679 10.2876 6.82659 11.7578 8.70563L11.5472 19.7167Z" fill="#FE93BC"/>
<g id="Group_14">
<path id="Vector_9" d="M5.43652 6.27961C6.99993 6.565 8.39454 7.37505 9.14515 8.70552C11.8806 13.5541 8.93442 19.7166 8.93442 19.7166C8.2848 20.86 7.44986 21.7612 6.44574 22.1768C7.10379 22.4132 7.76902 22.4943 8.41825 22.37C9.71187 22.1221 10.7641 21.0951 11.5473 19.7166L11.758 8.70552C10.307 6.85105 7.90665 5.84425 5.43652 6.27961Z" fill="#FE7AAC"/>
<path id="Vector_10" d="M7.95756 22.7913C7.7616 23.3518 7.52207 23.9109 7.37143 24.4851C7.22191 25.0548 7.95201 25.4404 8.36131 25.0169L8.56616 24.8049C8.73744 24.6277 9.00146 24.5772 9.2261 24.6785L9.49484 24.7997C10.0317 25.042 10.5675 24.4138 10.218 23.9396C9.8658 23.4619 9.43657 23.0308 9.04732 22.5825C8.72476 22.2095 8.11936 22.3255 7.95756 22.7913Z" fill="#FE7AAC"/>
</g>
</g>
</g>
<g id="Group_15">
<g id="Group_16">
<path id="Vector_11" d="M22.1131 32.9548C22.0825 32.9548 22.0515 32.952 22.0204 32.946C21.7547 32.8951 21.5805 32.6384 21.6314 32.3727L23.2957 23.6866C23.3465 23.4209 23.603 23.2469 23.869 23.2976C24.1347 23.3485 24.3089 23.6052 24.258 23.8709L22.5937 32.557C22.5488 32.7917 22.3434 32.9548 22.1131 32.9548Z" fill="#F5F5F5"/>
</g>
<g id="Group_17">
<path id="Vector_12" d="M24.539 22.7914C24.735 23.3519 24.9745 23.911 25.1251 24.4851C25.2747 25.0549 24.5446 25.4405 24.1353 25.017L23.9304 24.805C23.7591 24.6278 23.4951 24.5772 23.2705 24.6785L23.0017 24.7998C22.4649 25.042 21.929 24.4139 22.2786 23.9397C22.6308 23.4619 23.06 23.0309 23.4492 22.5826C23.7718 22.2095 24.3772 22.3255 24.539 22.7914Z" fill="#00CCF4"/>
<path id="Vector_13" d="M20.918 19.717C21.701 21.0953 22.7532 22.1222 24.0467 22.37C27.6128 23.0533 31.6629 17.5569 32.3462 13.9908C33.0295 10.4247 30.6925 6.9799 27.1264 6.29664C24.6219 5.81679 22.1773 6.82659 20.707 8.70563" fill="#6EDEFF"/>
<path id="Vector_14" d="M27.1262 6.29669C26.2568 6.13012 25.3947 6.14345 24.578 6.30995C28.1075 7.02228 30.4124 10.4464 29.7332 13.9909C29.1743 16.9078 26.3629 21.1153 23.4062 22.177C23.6127 22.2625 23.826 22.3279 24.0466 22.3702C27.6127 23.0535 31.6628 17.5571 32.3461 13.991C33.0294 10.4247 30.6924 6.97996 27.1262 6.29669Z" fill="#57D7FF"/>
</g>
</g>
</g>
<path id="Vector_15" d="M22.8067 13.5219C22.8067 17.1528 19.8631 23.3131 16.2322 23.3131C12.6012 23.3131 9.65771 17.1528 9.65771 13.5219C9.65771 9.8909 12.6012 6.94739 16.2322 6.94739C19.8631 6.94739 22.8067 9.8909 22.8067 13.5219Z" fill="#FCF29C"/>
<path id="Vector_16" d="M16.2322 6.94745C15.7849 6.94745 15.348 6.99232 14.9258 7.07744C17.9308 7.68336 20.1938 10.3382 20.1938 13.5219C20.1938 16.7055 17.9309 21.8332 14.9258 23.0485C15.348 23.2193 15.7849 23.3132 16.2322 23.3132C19.8632 23.3132 22.8067 17.1529 22.8067 13.5219C22.8067 9.8909 19.8632 6.94745 16.2322 6.94745Z" fill="#FAEC78"/>
<path id="Vector_17" d="M20.1485 12.4354C20.6305 11.9869 20.4304 10.9883 19.7016 10.2049C18.9727 9.42142 17.9911 9.14987 17.5091 9.59833C17.027 10.0468 17.2271 11.0454 17.9559 11.8289C18.6848 12.6123 19.6664 12.8839 20.1485 12.4354Z" fill="#FCE100"/>
<path id="Vector_18" d="M29.9439 11.8423C30.4259 11.3939 30.2258 10.3952 29.497 9.61178C28.7681 8.82834 27.7865 8.55679 27.3045 9.00525C26.8224 9.45371 27.0225 10.4524 27.7513 11.2358C28.4802 12.0192 29.4618 12.2908 29.9439 11.8423Z" fill="#00CCF4"/>
</g>
</g>
</svg>
