<svg width="148" height="30" viewBox="0 0 148 30" fill="none" xmlns="http://www.w3.org/2000/svg">
<path d="M2.88 8.48C2.61333 8.48 2.4 8.4 2.24 8.24C2.08 8.08 2 7.86667 2 7.6V7.04C2 6.77333 2.08 6.56 2.24 6.4C2.4 6.24 2.61333 6.16 2.88 6.16H10.56C12.8267 6.16 14.68 6.54666 16.12 7.32C17.5867 8.06667 18.6667 9.17333 19.36 10.64C20.08 12.08 20.44 13.84 20.44 15.92V28.12C20.44 28.3867 20.36 28.6 20.2 28.76C20.04 28.92 19.8267 29 19.56 29H18.88C18.6133 29 18.4 28.92 18.24 28.76C18.08 28.6 18 28.3867 18 28.12V16.12C18 13.72 17.4 11.8533 16.2 10.52C15 9.16 13.0533 8.48 10.36 8.48H2.88ZM5.88 6.88H6.56C6.82667 6.88 7.04 6.96 7.2 7.12C7.36 7.28 7.44 7.49333 7.44 7.76C7.25333 8.98667 7.09333 10.0933 6.96 11.08C6.82667 12.04 6.73333 13 6.68 13.96C6.62667 14.8933 6.6 15.9467 6.6 17.12V28.12C6.6 28.3867 6.52 28.6 6.36 28.76C6.2 28.92 5.98667 29 5.72 29L1.16 28.92C0.893334 28.92 0.68 28.84 0.52 28.68C0.36 28.52 0.28 28.3067 0.28 28.04V27.48C0.28 27.2133 0.36 27 0.52 26.84C0.68 26.68 0.893334 26.6 1.16 26.6L4.16 26.64V17.32C4.16 16.12 4.17333 15.04 4.2 14.08C4.22667 13.0933 4.30667 12.1067 4.44 11.12C4.57333 10.1333 4.78667 9 5.08 7.72C5.13333 7.45333 5.21333 7.25333 5.32 7.12C5.42667 6.96 5.61333 6.88 5.88 6.88ZM36.4513 29C35.8646 29 35.5713 28.7067 35.5713 28.12V13C35.5713 11.48 35.7579 10.28 36.1313 9.4C36.5046 8.52 36.9179 8.08 37.3713 8.08H40.2513C39.5846 8.08 39.0379 8.57333 38.6113 9.56C38.2113 10.52 38.0113 11.7333 38.0113 13.2V28.12C38.0113 28.3867 37.9313 28.6 37.7713 28.76C37.6113 28.92 37.3979 29 37.1313 29H36.4513ZM25.0113 8.48C24.7446 8.48 24.5313 8.4 24.3713 8.24C24.2113 8.08 24.1313 7.86667 24.1313 7.6V7.04C24.1313 6.77333 24.2113 6.56 24.3713 6.4C24.5313 6.24 24.7446 6.16 25.0113 6.16H41.8913C42.1579 6.16 42.3713 6.24 42.5312 6.4C42.6913 6.56 42.7713 6.77333 42.7713 7.04V7.6C42.7713 7.86667 42.6913 8.08 42.5312 8.24C42.3713 8.4 42.1579 8.48 41.8913 8.48H25.0113ZM52.8378 29.32C52.5978 29.4 52.3711 29.3867 52.1578 29.28C51.9711 29.1733 51.8778 28.9867 51.8778 28.72V27.72C51.8778 27.5067 51.9445 27.32 52.0778 27.16C52.2111 26.9733 52.4245 26.8267 52.7178 26.72L54.3578 26.08C55.5578 25.6 56.6378 25 57.5978 24.28C58.5578 23.56 59.3045 22.5867 59.8378 21.36C60.3978 20.1067 60.6778 18.4667 60.6778 16.44C60.6778 14.4667 60.4378 12.9067 59.9578 11.76C59.4778 10.5867 58.6778 9.74667 57.5578 9.24C56.4378 8.73333 54.9311 8.48 53.0378 8.48H51.6778C51.4111 8.48 51.1978 8.4 51.0378 8.24C50.8778 8.08 50.7978 7.86667 50.7978 7.6V7.04C50.7978 6.77333 50.8778 6.56 51.0378 6.4C51.1978 6.24 51.4111 6.16 51.6778 6.16H53.2378C55.6911 6.16 57.6378 6.49333 59.0778 7.16C60.5178 7.82667 61.5445 8.93333 62.1578 10.48C62.7978 12.0267 63.1178 14.1067 63.1178 16.72C63.1178 18.5867 62.8778 20.2 62.3978 21.56C61.9178 22.8933 61.2645 24.0267 60.4378 24.96C59.6378 25.8667 58.7178 26.6267 57.6778 27.24C56.6645 27.8267 55.6111 28.32 54.5178 28.72L52.8378 29.32ZM52.3578 8.48L48.4378 8.44C48.1711 8.44 47.9578 8.37333 47.7978 8.24C47.6378 8.08 47.5578 7.86667 47.5578 7.6V1.48C47.5578 1.21333 47.6378 0.999999 47.7978 0.839998C47.9578 0.679998 48.1711 0.599998 48.4378 0.599998H49.1178C49.3845 0.599998 49.5978 0.679998 49.7578 0.839998C49.9178 0.999999 49.9978 1.21333 49.9978 1.48V6.16H52.4778L52.3578 8.48ZM69.74 29C69.4733 29 69.26 28.92 69.1 28.76C68.94 28.6 68.86 28.3867 68.86 28.12V7.04C68.86 6.77333 68.94 6.56 69.1 6.4C69.26 6.24 69.4733 6.16 69.74 6.16H70.42C70.6867 6.16 70.9 6.24 71.06 6.4C71.22 6.56 71.3 6.77333 71.3 7.04V28.12C71.3 28.3867 71.22 28.6 71.06 28.76C70.9 28.92 70.6867 29 70.42 29H69.74ZM94.2806 29C94.014 29 93.8006 28.92 93.6406 28.76C93.4806 28.6 93.4006 28.3867 93.4006 28.12V16.12C93.4006 13.72 92.8006 11.8533 91.6006 10.52C90.4006 9.16 88.454 8.48 85.7606 8.48H78.8806C78.614 8.48 78.4006 8.4 78.2406 8.24C78.0806 8.08 78.0006 7.86667 78.0006 7.6V7.04C78.0006 6.77333 78.0806 6.56 78.2406 6.4C78.4006 6.24 78.614 6.16 78.8806 6.16H85.9606C89.374 6.16 91.8673 7.01333 93.4406 8.72C95.0406 10.4267 95.8406 12.8267 95.8406 15.92V28.12C95.8406 28.3867 95.7606 28.6 95.6006 28.76C95.4406 28.92 95.2273 29 94.9606 29H94.2806ZM78.8806 29C78.614 29 78.4006 28.92 78.2406 28.76C78.0806 28.6 78.0006 28.3867 78.0006 28.12V14.08C78.0006 13.8133 78.0806 13.6 78.2406 13.44C78.4006 13.28 78.614 13.2 78.8806 13.2H79.5606C79.8273 13.2 80.0406 13.28 80.2006 13.44C80.3606 13.6 80.4406 13.8133 80.4406 14.08V28.12C80.4406 28.3867 80.3606 28.6 80.2006 28.76C80.0406 28.92 79.8273 29 79.5606 29H78.8806ZM113.209 19.8C112.942 19.8 112.729 19.72 112.569 19.56C112.409 19.4 112.329 19.1867 112.329 18.92V7.04C112.329 6.77333 112.409 6.56 112.569 6.4C112.729 6.24 112.942 6.16 113.209 6.16H113.889C114.156 6.16 114.369 6.24 114.529 6.4C114.689 6.56 114.769 6.77333 114.769 7.04V18.92C114.769 19.1867 114.689 19.4 114.529 19.56C114.369 19.72 114.156 19.8 113.889 19.8H113.209ZM130.245 8.48H121.325C121.058 8.48 120.845 8.4 120.685 8.24C120.525 8.08 120.445 7.86667 120.445 7.6V7.04C120.445 6.77333 120.525 6.56 120.685 6.4C120.845 6.24 121.058 6.16 121.325 6.16H130.445C132.045 6.16 133.471 6.56 134.725 7.36C135.978 8.16 136.951 9.29333 137.645 10.76C138.365 12.2267 138.725 13.9467 138.725 15.92V28.12C138.725 28.3867 138.645 28.6 138.485 28.76C138.325 28.92 138.111 29 137.845 29H127.725C127.458 29 127.245 28.92 127.085 28.76C126.925 28.6 126.845 28.3867 126.845 28.12V27.56C126.845 27.2933 126.925 27.08 127.085 26.92C127.245 26.76 127.458 26.68 127.725 26.68H136.285V16.12C136.285 14.6 136.018 13.2667 135.485 12.12C134.951 10.9733 134.231 10.08 133.325 9.44C132.418 8.8 131.391 8.48 130.245 8.48ZM120.925 29C120.685 29 120.498 28.92 120.365 28.76C120.231 28.5733 120.178 28.3467 120.205 28.08L123.245 7.72C123.298 7.45333 123.418 7.25333 123.605 7.12C123.791 6.98666 124.005 6.94667 124.245 7L124.925 7.12C125.191 7.14667 125.391 7.25333 125.525 7.44C125.658 7.62667 125.698 7.84 125.645 8.08L122.645 28.08C122.618 28.3467 122.498 28.5733 122.285 28.76C122.098 28.92 121.885 29 121.645 29H120.925ZM145.748 19.8C145.481 19.8 145.268 19.72 145.108 19.56C144.948 19.4 144.868 19.1867 144.868 18.92V7.04C144.868 6.77333 144.948 6.56 145.108 6.4C145.268 6.24 145.481 6.16 145.748 6.16H146.428C146.695 6.16 146.908 6.24 147.068 6.4C147.228 6.56 147.308 6.77333 147.308 7.04V18.92C147.308 19.1867 147.228 19.4 147.068 19.56C146.908 19.72 146.695 19.8 146.428 19.8H145.748Z" fill="white"/>
</svg>
