<svg width="247" height="26" viewBox="0 0 247 26" fill="none" xmlns="http://www.w3.org/2000/svg">
<path d="M1.24 23C0.973333 23 0.76 22.92 0.6 22.76C0.44 22.6 0.36 22.3867 0.36 22.12V1.04C0.36 0.773333 0.44 0.56 0.6 0.4C0.76 0.239999 0.973333 0.159998 1.24 0.159998H8.32C10.5867 0.159998 12.44 0.546665 13.88 1.32C15.3467 2.06667 16.4267 3.17333 17.12 4.64C17.84 6.08 18.2 7.84 18.2 9.92V22.12C18.2 22.3867 18.12 22.6 17.96 22.76C17.8 22.92 17.5867 23 17.32 23H1.24ZM2.76 20.68H15.76V10.12C15.76 7.72 15.16 5.85333 13.96 4.52C12.76 3.16 10.8133 2.48 8.12 2.48H2.76V20.68ZM25.2559 13.8C24.9893 13.8 24.7759 13.72 24.6159 13.56C24.4559 13.4 24.3759 13.1867 24.3759 12.92V1.04C24.3759 0.773333 24.4559 0.56 24.6159 0.4C24.7759 0.239999 24.9893 0.159998 25.2559 0.159998H25.9359C26.2026 0.159998 26.4159 0.239999 26.5759 0.4C26.7359 0.56 26.8159 0.773333 26.8159 1.04V12.92C26.8159 13.1867 26.7359 13.4 26.5759 13.56C26.4159 13.72 26.2026 13.8 25.9359 13.8H25.2559ZM32.6516 23C32.3849 23 32.1716 22.92 32.0116 22.76C31.8516 22.6 31.7716 22.3867 31.7716 22.12V21.56C31.7716 21.2933 31.8516 21.08 32.0116 20.92C32.1716 20.76 32.3849 20.68 32.6516 20.68H43.2516V22.32C43.2516 22.5867 43.1716 22.7733 43.0116 22.88C42.8516 22.96 42.6382 23 42.3716 23H32.6516ZM41.8916 23C41.6249 23 41.4249 22.92 41.2916 22.76C41.1582 22.6 41.0649 22.3867 41.0116 22.12L40.1716 9.72C40.0916 8.28 39.9849 7.02667 39.8516 5.96C39.7182 4.86667 39.3982 4.01333 38.8916 3.4C38.3849 2.78667 37.5049 2.48 36.2516 2.48H34.7716C34.5049 2.48 34.2916 2.4 34.1316 2.24C33.9716 2.08 33.8916 1.86667 33.8916 1.6V1.04C33.8916 0.773333 33.9716 0.56 34.1316 0.4C34.2916 0.239999 34.5049 0.159998 34.7716 0.159998H36.2516C37.6649 0.159998 38.7716 0.399999 39.5716 0.879999C40.3982 1.33333 41.0116 1.98667 41.4116 2.84C41.8116 3.69333 42.0916 4.69333 42.2516 5.84C42.4116 6.96 42.5316 8.18667 42.6116 9.52L43.4516 22.12C43.5049 22.3867 43.4382 22.6 43.2516 22.76C43.0649 22.92 42.8382 23 42.5716 23H41.8916ZM49.7947 23C49.528 23 49.3147 22.92 49.1547 22.76C48.9947 22.6 48.9147 22.3867 48.9147 22.12V1.04C48.9147 0.773333 48.9947 0.56 49.1547 0.4C49.3147 0.239999 49.528 0.159998 49.7947 0.159998H50.4747C50.7414 0.159998 50.9547 0.239999 51.1147 0.4C51.2747 0.56 51.3547 0.773333 51.3547 1.04V22.12C51.3547 22.3867 51.2747 22.6 51.1147 22.76C50.9547 22.92 50.7414 23 50.4747 23H49.7947ZM59.0153 23C58.7486 23 58.5353 22.92 58.3753 22.76C58.2153 22.6 58.1353 22.3867 58.1353 22.12V21.56C58.1353 21.2933 58.2153 21.08 58.3753 20.92C58.5353 20.76 58.7486 20.68 59.0153 20.68H64.6953C67.3886 20.68 69.3086 20.0133 70.4553 18.68C71.602 17.32 72.2286 15.44 72.3353 13.04C72.362 12.4267 72.3753 11.9333 72.3753 11.56C72.3753 11.1867 72.362 10.7067 72.3353 10.12C72.2553 7.72 71.6286 5.85333 70.4553 4.52C69.3086 3.16 67.3886 2.48 64.6953 2.48H59.0153C58.7486 2.48 58.5353 2.4 58.3753 2.24C58.2153 2.08 58.1353 1.86667 58.1353 1.6V1.04C58.1353 0.773333 58.2153 0.56 58.3753 0.4C58.5353 0.239999 58.7486 0.159998 59.0153 0.159998H64.8953C67.162 0.159998 69.002 0.546665 70.4153 1.32C71.8553 2.06667 72.922 3.17333 73.6153 4.64C74.3353 6.08 74.722 7.84 74.7753 9.92C74.802 10.5067 74.8153 11.0533 74.8153 11.56C74.8153 12.0667 74.802 12.6267 74.7753 13.24C74.722 15.2933 74.3353 17.0533 73.6153 18.52C72.922 19.9867 71.8553 21.1067 70.4153 21.88C69.002 22.6267 67.162 23 64.8953 23H59.0153ZM90.5294 23C89.9427 23 89.6494 22.7067 89.6494 22.12V7C89.6494 5.48 89.836 4.28 90.2094 3.4C90.5827 2.52 90.996 2.08 91.4494 2.08H94.3294C93.6627 2.08 93.116 2.57333 92.6894 3.56C92.2894 4.52 92.0894 5.73333 92.0894 7.2V22.12C92.0894 22.3867 92.0094 22.6 91.8494 22.76C91.6894 22.92 91.476 23 91.2094 23H90.5294ZM79.0894 2.48C78.8227 2.48 78.6094 2.4 78.4494 2.24C78.2894 2.08 78.2094 1.86667 78.2094 1.6V1.04C78.2094 0.773333 78.2894 0.56 78.4494 0.4C78.6094 0.239999 78.8227 0.159998 79.0894 0.159998H95.9694C96.236 0.159998 96.4494 0.239999 96.6094 0.4C96.7694 0.56 96.8494 0.773333 96.8494 1.04V1.6C96.8494 1.86667 96.7694 2.08 96.6094 2.24C96.4494 2.4 96.236 2.48 95.9694 2.48H79.0894ZM101.876 25.2C101.609 25.3067 101.356 25.2933 101.116 25.16C100.876 25.0533 100.756 24.8667 100.756 24.6V24.08C100.756 23.84 100.783 23.6133 100.836 23.4C100.916 23.1867 101.076 23.04 101.316 22.96L109.596 19.92C111.143 19.36 112.343 18.64 113.196 17.76C114.049 16.8533 114.649 15.8267 114.996 14.68C115.343 13.5333 115.516 12.32 115.516 11.04V1.04C115.516 0.773333 115.596 0.56 115.756 0.4C115.916 0.239999 116.129 0.159998 116.396 0.159998H117.076C117.343 0.159998 117.556 0.239999 117.716 0.4C117.876 0.56 117.956 0.773333 117.956 1.04V11.84C117.956 13.3067 117.623 14.7333 116.956 16.12C116.316 17.48 115.409 18.6933 114.236 19.76C113.063 20.8267 111.676 21.6533 110.076 22.24L101.876 25.2ZM107.116 22.04L101.476 1.76C101.423 1.54667 101.369 1.38667 101.316 1.28C101.289 1.17333 101.276 1.06667 101.276 0.96C101.276 0.746666 101.356 0.56 101.516 0.4C101.676 0.239999 101.863 0.159998 102.076 0.159998H102.796C103.303 0.159998 103.609 0.359998 103.716 0.759998L109.516 21.12L107.116 22.04ZM125.303 23C125.036 23 124.823 22.92 124.663 22.76C124.503 22.6 124.423 22.3867 124.423 22.12V1.04C124.423 0.773333 124.503 0.56 124.663 0.4C124.823 0.239999 125.036 0.159998 125.303 0.159998H125.983C126.249 0.159998 126.463 0.239999 126.623 0.4C126.783 0.56 126.863 0.773333 126.863 1.04V22.12C126.863 22.3867 126.783 22.6 126.623 22.76C126.463 22.92 126.249 23 125.983 23H125.303ZM145.396 2.48C145.129 2.48 144.916 2.4 144.756 2.24C144.596 2.08 144.516 1.86667 144.516 1.6V1.04C144.516 0.773333 144.596 0.56 144.756 0.4C144.916 0.239999 145.129 0.159998 145.396 0.159998H153.076C155.342 0.159998 157.196 0.546665 158.636 1.32C160.102 2.06667 161.182 3.17333 161.876 4.64C162.596 6.08 162.956 7.84 162.956 9.92V22.12C162.956 22.3867 162.876 22.6 162.716 22.76C162.556 22.92 162.342 23 162.076 23H161.396C161.129 23 160.916 22.92 160.756 22.76C160.596 22.6 160.516 22.3867 160.516 22.12V10.12C160.516 7.72 159.916 5.85333 158.716 4.52C157.516 3.16 155.569 2.48 152.876 2.48H145.396ZM148.396 0.879999H149.076C149.342 0.879999 149.556 0.959998 149.716 1.12C149.876 1.28 149.956 1.49333 149.956 1.76C149.769 2.98667 149.609 4.09333 149.476 5.08C149.342 6.04 149.249 7 149.196 7.96C149.142 8.89333 149.116 9.94667 149.116 11.12V22.12C149.116 22.3867 149.036 22.6 148.876 22.76C148.716 22.92 148.502 23 148.236 23L143.676 22.92C143.409 22.92 143.196 22.84 143.036 22.68C142.876 22.52 142.796 22.3067 142.796 22.04V21.48C142.796 21.2133 142.876 21 143.036 20.84C143.196 20.68 143.409 20.6 143.676 20.6L146.676 20.64V11.32C146.676 10.12 146.689 9.04 146.716 8.08C146.742 7.09333 146.822 6.10667 146.956 5.12C147.089 4.13333 147.302 3 147.596 1.72C147.649 1.45333 147.729 1.25333 147.836 1.12C147.942 0.959998 148.129 0.879999 148.396 0.879999ZM170.303 23C170.036 23 169.823 22.92 169.663 22.76C169.503 22.6 169.423 22.3867 169.423 22.12V1.04C169.423 0.773333 169.503 0.56 169.663 0.4C169.823 0.239999 170.036 0.159998 170.303 0.159998H170.983C171.249 0.159998 171.463 0.239999 171.623 0.4C171.783 0.56 171.863 0.773333 171.863 1.04V22.12C171.863 22.3867 171.783 22.6 171.623 22.76C171.463 22.92 171.249 23 170.983 23H170.303ZM189.323 20.84C191.163 20.8667 192.696 20.52 193.923 19.8C195.176 19.08 196.11 18.0533 196.723 16.72C197.363 15.3867 197.683 13.8533 197.683 12.12V1.04C197.683 0.773333 197.763 0.56 197.923 0.4C198.083 0.239999 198.296 0.159998 198.563 0.159998H199.243C199.51 0.159998 199.723 0.239999 199.883 0.4C200.043 0.56 200.123 0.773333 200.123 1.04V12.4C200.123 14.08 199.87 15.6 199.363 16.96C198.856 18.2933 198.136 19.44 197.203 20.4C196.27 21.3333 195.15 22.0533 193.843 22.56C192.536 23.04 191.083 23.2533 189.483 23.2H186.803C185.256 23.2 183.816 22.8133 182.483 22.04C181.176 21.2667 180.123 20.16 179.323 18.72C178.55 17.2533 178.163 15.52 178.163 13.52V1.04C178.163 0.773333 178.243 0.56 178.403 0.4C178.563 0.239999 178.776 0.159998 179.043 0.159998H179.723C179.99 0.159998 180.203 0.239999 180.363 0.4C180.523 0.56 180.603 0.773333 180.603 1.04L180.763 13.64C180.763 15.96 181.43 17.7467 182.763 19C184.123 20.2267 185.843 20.84 187.923 20.84H189.323ZM179.883 15.32L179.763 13.04C182.03 12.9867 183.763 12.6533 184.963 12.04C186.163 11.4267 186.99 10.6267 187.443 9.64C187.896 8.65333 188.123 7.6 188.123 6.48V1.04C188.123 0.773333 188.203 0.56 188.363 0.4C188.523 0.239999 188.736 0.159998 189.003 0.159998H189.683C189.95 0.159998 190.163 0.239999 190.323 0.4C190.483 0.56 190.563 0.773333 190.563 1.04V6.68C190.563 8.22667 190.19 9.66667 189.443 11C188.696 12.3067 187.536 13.36 185.963 14.16C184.39 14.96 182.363 15.3467 179.883 15.32ZM216.779 23C216.193 23 215.899 22.7067 215.899 22.12V7C215.899 5.48 216.086 4.28 216.459 3.4C216.833 2.52 217.246 2.08 217.699 2.08H220.579C219.913 2.08 219.366 2.57333 218.939 3.56C218.539 4.52 218.339 5.73333 218.339 7.2V22.12C218.339 22.3867 218.259 22.6 218.099 22.76C217.939 22.92 217.726 23 217.459 23H216.779ZM205.339 2.48C205.073 2.48 204.859 2.4 204.699 2.24C204.539 2.08 204.459 1.86667 204.459 1.6V1.04C204.459 0.773333 204.539 0.56 204.699 0.4C204.859 0.239999 205.073 0.159998 205.339 0.159998H222.219C222.486 0.159998 222.699 0.239999 222.859 0.4C223.019 0.56 223.099 0.773333 223.099 1.04V1.6C223.099 1.86667 223.019 2.08 222.859 2.24C222.699 2.4 222.486 2.48 222.219 2.48H205.339ZM229.326 23C229.059 23 228.846 22.92 228.686 22.76C228.526 22.6 228.446 22.3867 228.446 22.12V1.04C228.446 0.773333 228.526 0.56 228.686 0.4C228.846 0.239999 229.059 0.159998 229.326 0.159998H236.446C238.713 0.159998 240.566 0.546665 242.006 1.32C243.473 2.06667 244.553 3.17333 245.246 4.64C245.966 6.08 246.326 7.84 246.326 9.92V22.12C246.326 22.3867 246.246 22.6 246.086 22.76C245.926 22.92 245.713 23 245.446 23H244.766C244.499 23 244.286 22.92 244.126 22.76C243.966 22.6 243.886 22.3867 243.886 22.12V10.12C243.886 7.72 243.286 5.85333 242.086 4.52C240.886 3.16 238.939 2.48 236.246 2.48H230.886V22.12C230.886 22.3867 230.806 22.6 230.646 22.76C230.486 22.92 230.273 23 230.006 23H229.326Z" fill="white"/>
</svg>
